# xmcd
#
# Track frame offsets: 
#        150
#        12969
#        28303
#        61765
#        91150
#        115071
#        126589
#        134376
#        163068
#        170942
#        185843
#        199095
#        214343
#        230686
#        249686
#        267130
#
# Disc length: 3753 seconds
#
# Revision: 3
# Processed by: cddbd v1.5.2PL0 Copyright (c) Steve Scherf et al.
# Submitted via: ExactAudioCopy v1.0b4
#
DISCID=f40ea710
DTITLE=Duster Bennett and Peter Green - Out In The Blue
DYEAR=1995
DGENRE=Blues Rock
TTITLE0=Worried Mind
TTITLE1=I've Been A Fool
TTITLE2=I Wonder, I Wonder
TTITLE3=Down The Road
TTITLE4=Trying So Hard To Forget
TTITLE5=Kind Hearted Woman
TTITLE6=Comin, I'm Coming
TTITLE7=I'm Thinking About A Woman
TTITLE8=Two Harps
TTITLE9=Everybody's Got A Friend But Me
TTITLE10=Blues With A Feeling
TTITLE11=As Years Roll By
TTITLE12=I Don't Wanna Fuss
TTITLE13=Sleep With Myself
TTITLE14=Losing Love
TTITLE15=Everyday
EXTD=
EXTT0=
EXTT1=
EXTT2=
EXTT3=
EXTT4=
EXTT5=
EXTT6=
EXTT7=
EXTT8=
EXTT9=
EXTT10=
EXTT11=
EXTT12=
EXTT13=
EXTT14=
EXTT15=
PLAYORDER=
